<svg width="64" height="64" viewBox="0 0 145 125" xmlns="http://www.w3.org/2000/svg">
  <defs>
    <style>
      .pink { fill: #C757A8; }
    </style>
  </defs>

  <!-- Logo -->
  <g transform="translate(0, 0)">
    <!-- Têtes (cercles en haut) - Très écartées et plus grandes -->
    <circle cx="50" cy="20" r="15" class="pink"/>
    <circle cx="95" cy="20" r="15" class="pink"/>

    <!-- Cœur entre les deux têtes - Centré, espacé, remonté et agrandi -->
    <path d="M 72.5 2 C 76.5 2 80 5 80 8.5 C 80 13 75 17 69 20 C 63 17 58 13 58 8.5 C 58 5 61.5 2 65.5 2 C 69.5 2 69 5 69 8.5 C 69 5 71.5 2 72.5 2 Z" class="pink" transform="translate(3.5, -4)"/>

    <!-- Jambes - S'écartent puis verticales - Très écartées et épaisses -->
    <path d="M 50 35 Q 35 65 35 115" stroke="#C757A8" stroke-width="18" fill="none" stroke-linecap="round"/>
    <path d="M 95 35 Q 110 65 110 115" stroke="#C757A8" stroke-width="18" fill="none" stroke-linecap="round"/>

    <!-- Bras formant un câlin - Très écartés et épais -->
    <path d="M 35 60 Q 72.5 55 110 60" stroke="#C757A8" stroke-width="8" fill="none" stroke-linecap="round"/>
    <path d="M 35 67 Q 72.5 72 110 67" stroke="#C757A8" stroke-width="8" fill="none" stroke-linecap="round"/>
  </g>
</svg>
