<svg width="1024" height="1024" viewBox="0 0 1024 1024" fill="none" xmlns="http://www.w3.org/2000/svg">
  <defs>
    <!-- Background gradient -->
    <linearGradient id="bgGradient" x1="0%" y1="0%" x2="100%" y2="100%">
      <stop offset="0%" style="stop-color:#9333EA;stop-opacity:1" />
      <stop offset="50%" style="stop-color:#C026D3;stop-opacity:1" />
      <stop offset="100%" style="stop-color:#EC4899;stop-opacity:1" />
    </linearGradient>

    <!-- Left person gradient -->
    <linearGradient id="logoGradient" x1="0%" y1="0%" x2="100%" y2="100%">
      <stop offset="0%" style="stop-color:#9333EA;stop-opacity:1" />
      <stop offset="50%" style="stop-color:#C026D3;stop-opacity:1" />
      <stop offset="100%" style="stop-color:#EC4899;stop-opacity:1" />
    </linearGradient>

    <!-- Right person gradient -->
    <linearGradient id="logoGradient2" x1="100%" y1="0%" x2="0%" y2="100%">
      <stop offset="0%" style="stop-color:#EC4899;stop-opacity:1" />
      <stop offset="50%" style="stop-color:#C026D3;stop-opacity:1" />
      <stop offset="100%" style="stop-color:#9333EA;stop-opacity:1" />
    </linearGradient>

    <!-- Glow effect -->
    <radialGradient id="glowGradient">
      <stop offset="0%" style="stop-color:#EC4899;stop-opacity:0.3" />
      <stop offset="100%" style="stop-color:#EC4899;stop-opacity:0" />
    </radialGradient>
  </defs>

  <!-- Background -->
  <rect width="1024" height="1024" rx="225" fill="url(#bgGradient)"/>

  <!-- Logo centered and scaled up -->
  <g transform="translate(512, 512) scale(12) translate(-28, -28)">
    <!-- Glow effect behind the kiss -->
    <circle cx="28" cy="16" r="12" fill="url(#glowGradient)" />

    <!-- Left person silhouette forming left stroke of A -->
    <ellipse cx="20" cy="14" rx="5.5" ry="6" fill="white" opacity="0.95" />
    <path
      d="M 20 20 Q 19 22 18 24"
      stroke="white"
      stroke-width="3"
      stroke-linecap="round"
      fill="none"
      opacity="0.95"
    />
    <path
      d="M 18 24 Q 16 28 14 34 L 12 42 Q 11 46 12 50"
      stroke="white"
      stroke-width="6"
      stroke-linecap="round"
      fill="none"
      opacity="0.95"
    />

    <!-- Right person silhouette forming right stroke of A -->
    <ellipse cx="36" cy="14" rx="5.5" ry="6" fill="white" opacity="0.95" />
    <path
      d="M 36 20 Q 37 22 38 24"
      stroke="white"
      stroke-width="3"
      stroke-linecap="round"
      fill="none"
      opacity="0.95"
    />
    <path
      d="M 38 24 Q 40 28 42 34 L 44 42 Q 45 46 44 50"
      stroke="white"
      stroke-width="6"
      stroke-linecap="round"
      fill="none"
      opacity="0.95"
    />

    <!-- The kiss - two faces leaning toward each other -->
    <path
      d="M 24 14 Q 26 13 28 13 Q 30 13 32 14"
      stroke="white"
      stroke-width="2"
      stroke-linecap="round"
      fill="none"
      opacity="0.9"
    />

    <!-- Arms embracing forming the crossbar of A -->
    <path
      d="M 16 30 Q 20 32 28 32 Q 36 32 40 30"
      stroke="white"
      stroke-width="5"
      stroke-linecap="round"
      fill="none"
      opacity="0.95"
    />

    <!-- Heart where they embrace -->
    <path
      d="M 28 28 C 26.5 25.5 24 25.5 23 27 C 22 28.5 23 30.5 25 32 L 28 34.5 L 31 32 C 33 30.5 34 28.5 33 27 C 32 25.5 29.5 25.5 28 28 Z"
      fill="white"
      opacity="0.95"
    />

    <!-- Sparkles around the heart -->
    <circle cx="20" cy="28" r="1.5" fill="white" opacity="0.7" />
    <circle cx="36" cy="28" r="1.5" fill="white" opacity="0.7" />
    <circle cx="28" cy="22" r="1" fill="white" opacity="0.8" />
  </g>
</svg>
